Coordinates
version=1
nRows=16
nColumns=40
inDegrees=yes

Units are S.I. units (second, meters, Newtons, ...)
Angles are in degrees.

endheader
time	pelvis_tilt	pelvis_list	pelvis_rotation	pelvis_tx	pelvis_ty	pelvis_tz	hip_flexion_r	hip_adduction_r	hip_rotation_r	knee_angle_r	knee_angle_r_beta	ankle_angle_r	subtalar_angle_r	mtp_angle_r	hip_flexion_l	hip_adduction_l	hip_rotation_l	knee_angle_l	knee_angle_l_beta	ankle_angle_l	subtalar_angle_l	mtp_angle_l	lumbar_extension	lumbar_bending	lumbar_rotation	arm_flex_r	arm_add_r	arm_rot_r	elbow_flex_r	pro_sup_r	wrist_flex_r	wrist_dev_r	arm_flex_l	arm_add_l	arm_rot_l	elbow_flex_l	pro_sup_l	wrist_flex_l	wrist_dev_l
     10.59500000	     -4.37644618	     -3.05119650	     -2.93524313	      0.99419517	      0.91875075	      0.40938030	     27.62966989	     -0.95484432	    -14.12553390	     17.05502517	     17.05502517	      2.00175436	      1.79061184	      5.14556868	     -2.46329228	     -3.02997249	     -9.90863923	     12.58319291	     12.58319291	     20.24219107	     -4.17045266	     -2.18825092	     -8.71877777	      4.48646632	      3.11110728	    -16.23480864	    -14.15303914	    -13.75553135	     21.23858904	     48.07210359	      0.00000000	      0.00000000	     10.41666761	    -12.91804377	    -12.82389600	     93.02341045	     47.88143838	      0.00000000	      0.00000000
     10.60721429	     -4.40281784	     -3.03774108	     -2.91259179	      0.99610404	      0.91737867	      0.41202824	     27.24986792	     -0.75861039	    -14.30111161	     17.16823737	     17.16823737	      2.05220414	      1.66007686	      5.01997354	     -2.98482980	     -3.20496054	     -9.86370835	     12.79378053	     12.79378053	     20.58138309	     -4.21362887	     -2.28260933	     -8.35275969	      4.45202691	      3.10913588	    -16.28442475	    -13.91626294	    -13.75539641	     21.26119530	     48.06709577	      0.00000000	      0.00000000	     10.22711232	    -12.83785327	    -12.80075279	     93.09421179	     47.88210376	      0.00000000	      0.00000000
     10.61942857	     -4.28368853	     -3.23051091	     -2.86881154	      0.99814323	      0.91637395	      0.41506792	     26.55968712	     -0.24603499	    -14.12101205	     17.10866823	     17.10866823	      0.92676726	      0.55317147	      1.40396955	     -3.26433264	     -3.86172105	    -10.66081509	     13.94207817	     13.94207817	     21.83578753	     -2.82209272	     -1.24870917	     -8.26368225	      4.61933051	      2.83879718	    -16.12237247	    -13.72672126	    -14.09895149	     21.87134640	     48.00389162	      0.00000000	      0.00000000	      9.39207891	    -12.84061573	    -13.10740808	     94.26478711	     47.97482766	      0.00000000	      0.00000000
     10.63164286	     -4.21553744	     -3.32470921	     -2.88602874	      1.00015422	      0.91585802	      0.41802350	     26.10224281	      0.03804591	    -14.12276116	     17.61744837	     17.61744837	      1.23421267	      0.31642651	      1.09463058	     -3.74317850	     -4.19465736	    -10.54826879	     14.44319439	     14.44319439	     21.96378535	     -3.10584447	     -1.28593696	     -8.07371567	      4.70991481	      2.96832688	    -15.84616038	    -13.40148139	    -14.05692661	     21.93712472	     47.99533868	      0.00000000	      0.00000000	      9.02635732	    -12.55961059	    -13.01315868	     94.09285476	     47.96580795	      0.00000000	      0.00000000
     10.64385714	     -4.10352943	     -3.42059614	     -2.89067942	      1.00204229	      0.91575676	      0.42109970	     25.64050519	      0.31104049	    -14.01631950	     18.27114540	     18.27114540	      1.68041300	     -0.06223869	      0.69435277	     -4.10137712	     -4.57750562	    -10.47514759	     15.22921289	     15.22921289	     21.98788311	     -3.46901442	     -1.34269005	     -7.97331553	      4.76352998	      3.12639474	    -15.37686180	    -13.17209578	    -14.01691570	     22.06913035	     47.98680495	      0.00000000	      0.00000000	      8.63084068	    -12.28720159	    -12.91743223	     93.85098875	     47.95492688	      0.00000000	      0.00000000
     10.65607143	     -3.91507005	     -3.51931908	     -2.93425658	      1.00369803	      0.91597956	      0.42430142	     25.25178853	      0.57934201	    -13.73161732	     19.20691152	     19.20691152	      2.13785960	     -0.70314698	      0.17946323	     -4.18102727	     -5.03456727	    -10.34674991	     16.68703100	     16.68703100	     21.98977949	     -4.03727539	     -1.53945729	     -8.06811422	      4.85272465	      3.19766686	    -14.65378429	    -12.95905417	    -13.96615330	     22.26535117	     47.97585101	      0.00000000	      0.00000000	      8.14594077	    -11.98719778	    -12.81102399	     93.39991126	     47.93984038	      0.00000000	      0.00000000
     10.66828571	     -4.21596096	     -3.66917602	     -2.81700553	      1.00474986	      0.91570214	      0.42765222	     25.35106233	      1.05056520	    -12.92970976	     19.88874720	     19.88874720	      1.95036516	     -2.79647022	     -1.53438692	     -3.13339946	     -5.80510021	    -10.36372209	     19.15518001	     19.15518001	     21.86935568	     -4.34995382	     -2.44754998	     -7.53573035	      4.97687152	      2.89254196	    -13.49283674	    -12.90765034	    -13.69896818	     21.80780657	     47.92738948	      0.00000000	      0.00000000	      7.78117402	    -11.84256873	    -13.27728402	     92.33077811	     47.99001479	      0.00000000	      0.00000000
     10.68050000	     -4.12217882	     -3.77000594	     -2.76324439	      1.00602393	      0.91649244	      0.43090211	     24.90011926	      1.31355370	    -12.80171801	     20.48265539	     20.48265539	      2.57553065	     -3.13776577	     -1.86771744	     -2.61968530	     -6.38290348	    -10.09448028	     21.39018074	     21.39018074	     21.39017552	     -5.15539682	     -2.95774583	     -7.56449458	      5.04025985	      2.85166224	    -12.43700914	    -12.73546022	    -13.61886239	     22.16410224	     47.90409415	      0.00000000	      0.00000000	      7.23320870	    -11.69467139	    -13.14811949	     91.56937492	     47.97128922	      0.00000000	      0.00000000
     10.69271429	     -3.98805913	     -3.88019307	     -2.70090009	      1.00710244	      0.91762044	      0.43422331	     24.32458767	      1.60941968	    -12.65490637	     20.87406053	     20.87406053	      3.18942446	     -3.39276725	     -2.03990222	     -1.90634081	     -7.02479909	     -9.82094707	     24.01195339	     24.01195339	     20.62969992	     -6.03946776	     -3.64763720	     -7.66742156	      5.08599675	      2.77719621	    -11.24045326	    -12.58966666	    -13.52105233	     22.58676167	     47.87943652	      0.00000000	      0.00000000	      6.70759499	    -11.48491545	    -13.00516470	     90.58600572	     47.94587416	      0.00000000	      0.00000000
     10.70492857	     -4.05507365	     -3.98929300	     -2.57829384	      1.00787562	      0.91861319	      0.43748336	     23.87157104	      1.90742105	    -12.62094830	     21.02283573	     21.02283573	      3.78297866	     -3.58704057	     -2.01779727	     -0.62622672	     -7.74230556	     -9.45686297	     27.15107447	     27.15107447	     19.40464247	     -7.11862251	     -4.86991359	     -7.49875248	      5.19413266	      2.56800155	     -9.94072786	    -12.42359485	    -13.34914834	     23.07268319	     47.84143378	      0.00000000	      0.00000000	      6.11914795	    -11.31403024	    -12.88777284	     89.02528843	     47.91319867	      0.00000000	      0.00000000
     10.71714286	     -3.89204242	     -4.10002910	     -2.43576969	      1.00856203	      0.92004320	      0.44068866	     23.08781903	      2.18364205	    -12.70457848	     21.01000668	     21.01000668	      4.38887032	     -3.49138812	     -2.01869117	      0.56160176	     -8.45021479	     -9.02305911	     30.49690750	     30.49690750	     17.90704801	     -8.28451778	     -5.88289750	     -7.68595679	      5.27422990	      2.47698819	     -8.53359639	    -12.30516983	    -13.18034688	     23.65649886	     47.80402153	      0.00000000	      0.00000000	      5.68105880	    -11.08665569	    -12.67621817	     87.59707073	     47.87536240	      0.00000000	      0.00000000
     10.72935714	     -3.89162588	     -4.15772943	     -2.26406477	      1.00901672	      0.92126866	      0.44370949	     22.46744570	      2.36223799	    -12.96085228	     20.96920880	     20.96920880	      5.39029308	     -2.96092494	     -0.90043693	      1.91841396	     -9.00168561	     -8.32030146	     33.42423529	     33.42423529	     13.65827633	    -11.31646568	    -12.24506906	     -7.58082475	      5.36818106	      2.76762453	     -7.71214374	    -12.36604833	    -11.55634444	     25.03894001	     47.49482044	      0.00000000	      0.00000000	      5.93017899	    -10.79925912	    -11.86276688	     84.21389597	     47.81769783	      0.00000000	      0.00000000
     10.74157143	     -3.81132345	     -4.28419311	     -2.02943814	      1.00929525	      0.92251622	      0.44663758	     21.61850704	      2.62313845	    -13.32663586	     20.59269707	     20.59269707	      5.85424213	     -2.51506472	     -1.03689489	      3.67786590	     -9.72061017	     -7.66355540	     37.37217895	     37.37217895	     11.90174353	    -12.58108349	    -12.33630969	     -7.67339354	      5.48157721	      2.52555012	     -6.16523375	    -12.33103751	    -11.39803407	     25.86134015	     47.44928400	      0.00000000	      0.00000000	      5.33445879	    -10.64275081	    -11.56182220	     82.71190298	     47.77208540	      0.00000000	      0.00000000
     10.75378571	     -3.71333203	     -4.42332060	     -1.75478503	      1.00930213	      0.92371665	      0.44942228	     20.76128319	      2.87506983	    -13.81631197	     20.19829741	     20.19829741	      6.25219591	     -2.01328411	     -1.17477070	      5.55456648	    -10.40338274	     -6.90771308	     41.35000206	     41.35000206	      9.95772985	    -13.90345944	    -12.12452058	     -7.83502125	      5.60150257	      2.32945826	     -4.54803887	    -12.31303792	    -11.21649367	     26.73917778	     47.40258639	      0.00000000	      0.00000000	      4.93633724	    -10.44870660	    -11.19478492	     80.95083609	     47.71721072	      0.00000000	      0.00000000
     10.76600000	     -3.71529074	     -4.36376171	     -1.44210331	      1.00912800	      0.92472789	      0.45176484	     19.99736545	      2.81874140	    -14.59242138	     19.78451950	     19.78451950	      6.69056033	     -0.85718607	     -1.60129213	      7.68854528	    -10.64762091	     -5.81766483	     45.35106420	     45.35106420	      8.44271304	    -15.38479590	    -10.06991867	     -7.73385596	      5.61890544	      2.70371779	     -3.66467699	    -12.52950416	    -10.03664917	     28.39927659	     47.19936159	      0.00000000	      0.00000000	      5.74550189	    -10.04735877	    -10.23942540	     75.95388358	     47.58808739	      0.00000000	      0.00000000
     10.77821429	     -3.76087305	     -4.48193625	     -1.09182381	      1.00862671	      0.92551956	      0.45416908	     19.24309100	      3.04958781	    -15.14253385	     19.20980372	     19.20980372	      6.92502686	     -0.28966741	     -1.75591149	      9.98219119	    -11.15179062	     -4.88314404	     49.27736366	     49.27736366	      6.95943934	    -16.35734554	     -8.33531430	     -7.73870681	      5.76637733	      2.38148603	     -2.09378735	    -12.60108769	     -9.57670380	     29.86295763	     47.09583319	      0.00000000	      0.00000000	      5.37740350	    -10.04990852	     -9.45931732	     73.46056569	     47.49732597	      0.00000000	      0.00000000
